<?xml version="1.0" encoding="UTF-8" standalone="no"?>
<svg width="18px" height="18px" viewBox="0 0 18 18" version="1.1" xmlns="http://www.w3.org/2000/svg" xmlns:xlink="http://www.w3.org/1999/xlink">
    <!-- Generator: Sketch 3.8.3 (29802) - http://www.bohemiancoding.com/sketch -->
    <title>菜单</title>
    <desc>Created with Sketch.</desc>
    <defs></defs>
    <g id="Page-1" stroke="none" stroke-width="1" fill="none" fill-rule="evenodd">
        <g id="右边栏切图" transform="translate(-97.000000, -37.000000)" fill="#8f9293">
            <path d="M113.01348,52.0654045 L103.671106,52.0654045 C103.384427,52.0654045 103.152184,51.8402543 103.152184,51.56273 L103.152184,50.5572633 C103.152184,50.279582 103.384427,50.054471 103.671106,50.054471 L113.01348,50.054471 C113.299997,50.054471 113.532443,50.279582 113.532443,50.5572633 L113.532443,51.56273 C113.532443,51.8402543 113.299997,52.0654045 113.01348,52.0654045 L113.01348,52.0654045 Z M113.01348,47.0380709 L103.671106,47.0380709 C103.384427,47.0380709 103.152184,46.81296 103.152184,46.5354356 L103.152184,45.5299689 C103.152184,45.2522876 103.384427,45.0271374 103.671106,45.0271374 L113.01348,45.0271374 C113.299997,45.0271374 113.532443,45.2522876 113.532443,45.5299689 L113.532443,46.5354356 C113.532443,46.8131169 113.299997,47.0380709 113.01348,47.0380709 L113.01348,47.0380709 Z M113.01348,42.0109334 L103.671106,42.0109334 C103.384427,42.0109334 103.152184,41.7857833 103.152184,41.508102 L103.152184,40.5026353 C103.152184,40.2251109 103.384427,40 103.671106,40 L113.01348,40 C113.299997,40 113.532443,40.2251109 113.532443,40.5026353 L113.532443,41.508102 C113.532443,41.7857833 113.299997,42.0109334 113.01348,42.0109334 L113.01348,42.0109334 Z M100.556968,52.0654045 L99.5189218,52.0654045 C99.232243,52.0654045 99,51.8402543 99,51.56273 L99,50.5572633 C99,50.279582 99.232243,50.054471 99.5189218,50.054471 L100.556968,50.054471 C100.843687,50.054471 101.076092,50.279582 101.076092,50.5572633 L101.076092,51.56273 C101.076092,51.8402543 100.843687,52.0654045 100.556968,52.0654045 L100.556968,52.0654045 Z M100.556968,47.0380709 L99.5189218,47.0380709 C99.232243,47.0380709 99,46.81296 99,46.5354356 L99,45.5299689 C99,45.2522876 99.232243,45.0271374 99.5189218,45.0271374 L100.556968,45.0271374 C100.843687,45.0271374 101.076092,45.2522876 101.076092,45.5299689 L101.076092,46.5354356 C101.076092,46.8131169 100.843687,47.0380709 100.556968,47.0380709 L100.556968,47.0380709 Z M100.556968,42.0109334 L99.5189218,42.0109334 C99.232243,42.0109334 99,41.7857833 99,41.508102 L99,40.5026353 C99,40.2251109 99.232243,40 99.5189218,40 L100.556968,40 C100.843687,40 101.076092,40.2251109 101.076092,40.5026353 L101.076092,41.508102 C101.076092,41.7857833 100.843687,42.0109334 100.556968,42.0109334 L100.556968,42.0109334 Z" id="菜单"></path>
        </g>
    </g>
</svg>